<?xml version="1.0" standalone="no"?>
<!DOCTYPE svg PUBLIC "-//W3C//DTD SVG 20010904//EN"
 "http://www.w3.org/TR/2001/REC-SVG-20010904/DTD/svg10.dtd">
<svg version="1.0" xmlns="http://www.w3.org/2000/svg"
 width="1050.000000pt" height="1050.000000pt" viewBox="0 0 1050.000000 1050.000000"
 preserveAspectRatio="xMidYMid meet">

<g transform="translate(0.000000,1050.000000) scale(0.100000,-0.100000)"
fill="#000000" stroke="none">
<path d="M2509 7171 c-19 -11 -43 -35 -54 -54 -31 -58 -34 -43 180 -812 68
-242 75 -304 43 -395 l-23 -65 -215 -3 -215 -2 3 -98 c3 -69 -4 -143 -22 -258
-14 -89 -26 -176 -26 -193 0 -17 -3 -31 -8 -31 -12 0 -62 290 -69 399 -5 91
-9 105 -35 141 l-30 40 -256 0 -257 0 -2 -118 c-1 -80 -11 -174 -32 -296 -18
-99 -33 -182 -35 -184 -2 -2 -9 20 -15 49 -30 139 -43 234 -46 342 l-4 119
-36 44 -36 44 -281 0 c-262 0 -280 -1 -275 -17 3 -10 17 -45 31 -79 28 -67 42
-134 182 -889 71 -387 97 -549 101 -635 5 -113 6 -116 41 -162 l36 -48 292 0
291 0 -4 98 c-4 72 2 143 21 272 40 266 52 329 59 300 34 -143 66 -342 73
-457 7 -105 8 -108 48 -161 l41 -54 140 6 c77 3 206 6 287 6 l146 0 -5 98 c-4
85 2 136 46 402 28 168 53 309 54 315 2 5 14 -24 26 -65 12 -41 43 -118 68
-170 l46 -94 -7 -123 c-3 -67 -11 -156 -17 -197 l-11 -76 36 -45 37 -45 161 0
160 0 75 -70 c296 -277 913 -527 1528 -621 179 -27 575 -37 762 -20 680 64
1395 332 1735 650 l86 81 81 0 c79 0 81 1 71 20 -14 25 -14 25 56 -7 45 -21
79 -28 145 -31 110 -5 176 13 266 74 l67 47 39 -47 39 -46 239 0 c131 0 239 4
239 9 0 5 -7 28 -15 51 -25 72 -18 79 29 29 46 -50 97 -74 236 -111 59 -16
108 -21 225 -21 162 -1 229 9 335 50 223 88 369 291 370 514 0 70 -32 197 -68
269 -38 77 -156 192 -282 274 -225 148 -270 179 -270 187 0 22 25 57 50 72 85
50 292 14 444 -78 32 -19 60 -35 62 -35 2 0 4 97 4 215 l0 215 -52 70 c-45 60
-60 73 -113 93 -123 49 -200 62 -365 62 -173 0 -214 -9 -329 -72 -172 -95
-271 -264 -271 -463 0 -253 140 -480 376 -611 42 -23 93 -58 115 -79 34 -32
40 -44 37 -71 -3 -29 -8 -35 -43 -45 -22 -7 -74 -13 -115 -13 -117 -1 -221 41
-357 143 l-61 46 -4 303 c-5 338 -9 362 -77 502 -110 223 -327 352 -621 368
l-45 2 -9 55 c-10 65 14 173 112 510 90 305 142 512 142 559 0 92 -57 141
-162 141 -36 0 -80 -5 -99 -12 -19 -6 -248 -107 -509 -223 -261 -117 -515
-229 -563 -250 -48 -21 -86 -39 -84 -41 2 -2 66 23 143 56 76 33 145 60 152
60 6 0 12 -7 12 -16 0 -23 -222 -415 -238 -422 -8 -2 -59 9 -115 26 -216 66
-511 125 -777 154 -66 7 -237 12 -400 12 -300 0 -468 -14 -705 -56 -66 -12
-167 -22 -225 -23 -105 -1 -146 -12 -191 -52 -9 -7 -76 -32 -149 -54 -73 -22
-168 -54 -212 -70 -44 -17 -87 -29 -97 -26 -16 4 -1004 690 -1181 820 -47 34
-85 69 -85 77 0 24 68 36 132 22 54 -11 88 -25 418 -172 88 -40 167 -74 175
-76 45 -15 -85 47 -310 147 -233 103 -260 113 -325 116 -55 3 -77 -1 -106 -16z
m1950 -752 c130 -28 212 -159 181 -289 -27 -111 -117 -180 -234 -180 -77 0
-136 28 -181 87 -105 138 -41 335 123 379 60 16 52 16 111 3z m1946 -121 c-9
-43 -18 -918 -10 -987 l7 -53 65 113 c126 221 196 354 212 404 l16 50 273 3
273 2 -47 -62 c-27 -34 -134 -201 -240 -372 l-192 -311 38 -70 c176 -331 393
-714 441 -778 33 -43 59 -80 59 -83 0 -2 -126 -4 -280 -4 -216 0 -281 3 -284
13 -2 6 -9 35 -15 62 -15 64 -55 153 -200 445 l-116 235 -3 -260 c-3 -227 6
-399 24 -471 5 -20 2 -21 -138 -27 -79 -4 -189 -7 -246 -7 l-103 0 8 63 c11
87 5 1852 -7 1962 -5 50 -12 105 -16 122 -6 31 -5 32 32 36 22 2 133 4 248 5
l208 2 -7 -32z m-3139 -10 c-19 -72 -26 -177 -24 -370 l3 -216 65 49 c91 68
164 94 270 94 64 0 100 -6 146 -23 128 -49 240 -172 263 -291 8 -41 15 -271
21 -674 5 -337 14 -632 19 -657 6 -25 10 -51 11 -57 0 -10 -56 -13 -246 -13
l-246 0 6 24 c24 95 27 199 20 666 -6 447 -8 498 -24 530 -54 106 -179 128
-259 46 -18 -18 -37 -51 -42 -72 -5 -22 -6 -246 -3 -524 5 -439 12 -581 30
-647 l6 -23 -257 0 c-239 0 -256 1 -251 18 28 94 30 169 27 927 -2 724 -11
1132 -27 1197 -6 26 -4 27 37 30 24 2 138 4 253 6 l208 2 -6 -22z m6090 -412
c76 -16 199 -59 221 -77 18 -16 19 -384 1 -376 -189 77 -229 87 -332 87 -112
-1 -186 -54 -186 -135 0 -40 5 -47 63 -101 35 -33 108 -86 163 -118 205 -123
290 -200 339 -309 109 -249 -6 -551 -255 -670 -116 -55 -206 -70 -369 -64
-163 6 -256 28 -388 92 l-93 44 0 221 c0 121 2 220 5 220 3 0 35 -19 71 -41
133 -85 277 -127 384 -114 117 15 180 63 180 137 0 36 -6 47 -48 87 -27 26
-96 72 -160 105 -253 135 -330 228 -363 439 -38 243 119 487 365 567 100 32
266 35 402 6z m-1351 -10 c216 -58 372 -205 404 -381 7 -35 11 -205 12 -419 1
-585 13 -781 54 -888 7 -17 -8 -18 -224 -18 l-230 0 -7 49 c-3 27 -9 53 -13
60 -4 7 -30 -11 -67 -48 -86 -83 -147 -105 -284 -106 -100 0 -108 2 -174 35
-180 90 -299 294 -300 515 -1 110 14 176 65 281 92 195 282 298 514 280 45 -3
103 -13 131 -21 27 -8 50 -15 52 -15 7 0 0 141 -9 173 -23 85 -110 144 -226
154 -75 6 -213 -16 -294 -46 -26 -10 -49 -17 -51 -15 -3 2 10 148 31 365 1 9
112 39 201 55 99 17 334 12 415 -10z m-2354 -25 c53 -18 111 -41 128 -52 l31
-19 0 -190 0 -190 -39 20 c-116 59 -195 83 -291 87 -110 5 -149 -9 -188 -67
-27 -40 -25 -88 6 -130 23 -31 126 -104 267 -190 149 -91 225 -162 272 -257
33 -67 38 -86 41 -167 5 -113 -9 -186 -54 -276 -62 -124 -180 -222 -336 -278
-68 -25 -85 -26 -243 -27 -195 0 -267 15 -412 86 l-81 40 -7 92 c-3 51 -5 154
-3 230 l3 138 65 -46 c129 -92 228 -127 365 -129 68 -1 88 3 129 24 59 30 91
82 81 129 -10 45 -95 116 -234 196 -236 136 -313 215 -345 354 -30 133 -17
250 42 366 37 75 153 185 237 227 61 31 92 41 180 62 11 3 81 4 155 2 121 -3
145 -6 231 -35z m-3644 -109 c1 -42 8 -120 16 -172 22 -139 106 -621 113 -650
6 -24 7 -24 15 -5 13 30 109 767 109 839 l0 63 193 5 c177 6 285 3 294 -5 2
-2 -5 -24 -16 -48 -11 -24 -29 -81 -41 -127 -29 -117 -230 -1361 -230 -1430 0
-31 -4 -63 -9 -71 -7 -11 -55 -12 -267 -7 l-259 6 -6 88 c-8 107 -127 814
-139 826 -8 8 -11 2 -25 -66 -23 -114 -108 -693 -112 -765 l-6 -93 -248 -1
c-137 -1 -255 -2 -261 -3 -9 -1 -15 26 -19 90 -9 116 -28 239 -94 599 -112
607 -165 872 -184 929 -12 33 -21 63 -21 68 0 4 109 8 243 8 l242 0 1 -128 c1
-109 10 -173 63 -461 33 -184 63 -336 66 -339 8 -8 13 16 44 213 44 278 91
621 91 670 0 23 2 44 4 46 2 2 103 3 223 1 l218 -3 2 -77z m2646 11 c-12 -118
-8 -1455 6 -1532 6 -36 9 -66 8 -67 -1 -1 -109 -5 -240 -8 l-238 -7 8 88 c10
115 6 1393 -5 1503 -5 47 -7 88 -5 93 2 4 110 7 239 7 l236 0 -9 -77z"/>
<path d="M7715 4876 c-38 -17 -90 -72 -104 -109 -25 -67 -2 -166 50 -214 127
-116 330 -22 329 153 -1 38 -31 103 -61 131 -54 50 -151 67 -214 39z m204
-125 c37 -34 41 -78 12 -131 -35 -67 -129 -106 -192 -80 -57 24 -64 129 -12
191 32 38 55 48 114 48 38 1 53 -4 78 -28z"/>
<path d="M3290 6905 c14 -8 30 -14 35 -14 6 0 -1 6 -15 14 -14 8 -29 14 -35
14 -5 0 1 -6 15 -14z"/>
<path d="M3390 6860 c19 -11 40 -19 45 -19 6 0 -6 8 -25 19 -19 11 -39 19 -45
19 -5 0 6 -8 25 -19z"/>
<path d="M5033 6863 c9 -2 25 -2 35 0 9 3 1 5 -18 5 -19 0 -27 -2 -17 -5z"/>
<path d="M5383 6863 c9 -2 25 -2 35 0 9 3 1 5 -18 5 -19 0 -27 -2 -17 -5z"/>
<path d="M4898 6853 c7 -3 16 -2 19 1 4 3 -2 6 -13 5 -11 0 -14 -3 -6 -6z"/>
<path d="M4938 6853 c7 -3 16 -2 19 1 4 3 -2 6 -13 5 -11 0 -14 -3 -6 -6z"/>
<path d="M5498 6853 c7 -3 16 -2 19 1 4 3 -2 6 -13 5 -11 0 -14 -3 -6 -6z"/>
<path d="M5538 6853 c7 -3 16 -2 19 1 4 3 -2 6 -13 5 -11 0 -14 -3 -6 -6z"/>
<path d="M5613 6843 c9 -2 23 -2 30 0 6 3 -1 5 -18 5 -16 0 -22 -2 -12 -5z"/>
<path d="M3460 6830 c8 -5 20 -10 25 -10 6 0 3 5 -5 10 -8 5 -19 10 -25 10 -5
0 -3 -5 5 -10z"/>
<path d="M4598 6813 c7 -3 16 -2 19 1 4 3 -2 6 -13 5 -11 0 -14 -3 -6 -6z"/>
<path d="M5838 6813 c7 -3 16 -2 19 1 4 3 -2 6 -13 5 -11 0 -14 -3 -6 -6z"/>
<path d="M3550 6790 c19 -11 40 -19 45 -19 6 0 -6 8 -25 19 -19 11 -39 19 -45
19 -5 0 6 -8 25 -19z"/>
<path d="M6018 6773 c7 -3 16 -2 19 1 4 3 -2 6 -13 5 -11 0 -14 -3 -6 -6z"/>
<path d="M3620 6760 c8 -5 20 -10 25 -10 6 0 3 5 -5 10 -8 5 -19 10 -25 10 -5
0 -3 -5 5 -10z"/>
<path d="M3700 6725 c14 -8 30 -14 35 -14 6 0 -1 6 -15 14 -14 8 -29 14 -35
14 -5 0 1 -6 15 -14z"/>
<path d="M6428 6653 c6 -2 18 -2 25 0 6 3 1 5 -13 5 -14 0 -19 -2 -12 -5z"/>
</g>
</svg>
